<svg xmlns="http://www.w3.org/2000/svg" width="500" height="500" viewBox="0 0 500 500">
  <g id="Group_8" data-name="Group 8" transform="translate(-249 -142)">
    <rect id="Rectangle_8" data-name="Rectangle 8" width="500" height="500" rx="250" transform="translate(249 142)" fill="#bde038"/>
    <path id="Path_11" data-name="Path 11" d="M3.4,220.176V105.359q0-15.947,9.214-23.743a31.035,31.035,0,0,1,20.554-7.8,30.64,30.64,0,0,1,20.554,7.973q9.214,7.973,9.214,23.92v38.272H45.216V105.713q0-7.442-3.544-11.163a10.615,10.615,0,0,0-7.8-3.721,10.958,10.958,0,0,0-8.151,3.721q-3.544,3.721-3.544,11.163V219.821q0,7.442,3.544,11.163a10.958,10.958,0,0,0,8.151,3.721,10.615,10.615,0,0,0,7.8-3.721q3.544-3.721,3.544-11.163V178.005H62.935v41.816q0,15.947-9.214,23.92a30.64,30.64,0,0,1-20.554,7.973,31.035,31.035,0,0,1-20.554-7.8Q3.4,236.123,3.4,220.176Zm89.657,30.476H74.275V75.237H93.057V88.7h2.126q.709-8.5,7.265-11.517a32.322,32.322,0,0,1,13.643-3.012V97.208H93.057Zm28.7-145.293q0-15.947,9.214-23.743a31.035,31.035,0,0,1,20.554-7.8,30.64,30.64,0,0,1,20.554,7.973q9.214,7.973,9.214,23.92V161.7H140.543v58.117q0,7.442,3.721,11.163t7.973,3.721a10.958,10.958,0,0,0,8.151-3.721q3.544-3.721,3.544-11.163V178.005H181.3v41.816q0,15.947-9.214,23.92a30.64,30.64,0,0,1-20.554,7.973,31.035,31.035,0,0,1-20.554-7.8q-9.214-7.8-9.214-23.743Zm18.782,41.462h23.034V91.538H140.543Zm92.846,104.186V237.54h-2.126q-.354,4.607-4.43,9.568t-13.289,4.961q-6.733,0-10.986-2.835A19,19,0,0,1,196,241.793a31.554,31.554,0,0,1-3.012-10.277,88.582,88.582,0,0,1-.709-10.986V105.359a88.582,88.582,0,0,1,.709-10.986A31.554,31.554,0,0,1,196,84.1a19,19,0,0,1,6.556-7.442q4.252-2.835,10.986-2.835,9.214,0,13.289,4.961t4.43,9.568h2.126V19.6h18.782V251.006Zm-11.694-14.884q7.8,0,9.745-5.493a33.159,33.159,0,0,0,1.949-11.163V106.422a33.159,33.159,0,0,0-1.949-11.163q-1.949-5.493-9.745-5.493-6.379,0-8.5,5.493a28.965,28.965,0,0,0-2.126,10.454V220.176a28.965,28.965,0,0,0,2.126,10.454Q215.316,236.123,221.695,236.123Zm42.171-15.947V105.359q0-15.947,9.214-23.743a31.035,31.035,0,0,1,20.554-7.8,30.64,30.64,0,0,1,20.554,7.973q9.214,7.973,9.214,23.92V219.821q0,15.947-9.214,23.92a30.64,30.64,0,0,1-20.554,7.973,31.035,31.035,0,0,1-20.554-7.8Q263.865,236.123,263.865,220.176ZM282.647,91.538V219.821q0,7.442,3.544,10.808A10.742,10.742,0,0,0,293.633,234a10.512,10.512,0,0,0,7.619-3.367q3.367-3.367,3.367-10.808V91.538Z" transform="translate(335.6 256.4)"/>
  </g>
</svg>
