<svg xmlns="http://www.w3.org/2000/svg" xmlns:xlink="http://www.w3.org/1999/xlink" width="15000" height="16097.84" viewBox="0 0 15000 16097.84">
  <defs>
    <linearGradient id="linear-gradient" x1="0.5" x2="0.5" y2="1" gradientUnits="objectBoundingBox">
      <stop offset="0" stop-color="#fffcb8"/>
      <stop offset="0" stop-color="#279af1"/>
      <stop offset="1" stop-color="#ff6700"/>
    </linearGradient>
  </defs>
  <g id="Group_30" data-name="Group 30" transform="translate(-2282.69 -1103.493)">
    <path id="Path_88" data-name="Path 88" d="M1655.523,17.821v164.97H314.662v909.254h897.744v164.97H314.662V2396.459H1655.523v164.97H-113.109V17.821Zm1492.25,2441.941a684.207,684.207,0,0,0,186.071-25.9q92.076-25.9,164.97-76.73t117.013-124.686q44.121-73.853,44.12-171.684,0-117.014-60.426-208.131t-158.256-166.888q-97.831-75.771-223.477-142.91T2961.7,1408.557q-130.442-67.139-256.087-140.992T2482.139,1102.6q-97.831-91.117-158.256-203.335t-60.425-258.006q0-145.788,54.67-270.474t160.175-215.8q105.5-91.117,259.923-142.91t353.918-51.793q180.316,0,322.267,38.365t249.374,113.177q107.422,74.812,182.234,184.153t120.85,253.21l-218.681,99.749q-38.365-117.013-97.831-213.886T3508.406,269.113q-82.485-69.057-190.866-106.463t-244.578-37.406q-120.85,0-211.008,33.569t-150.583,88.24q-60.425,54.67-90.158,122.768t-29.732,139.074q0,99.749,61.384,183.193t163.052,157.3q101.667,73.853,231.151,142.91t263.76,140.033q134.278,70.975,263.76,147.705t231.15,167.848Q3907.4,1539,3968.788,1647.38t61.384,242.659q0,151.542-57.548,284.861T3799.981,2407.01q-115.095,98.79-285.82,156.338T3117.082,2620.9q-184.152,0-328.022-40.283T2534.891,2463.6a771.975,771.975,0,0,1-188.948-187.03q-78.648-110.3-128.523-252.251l228.273-93.995q40.283,124.687,108.381,222.518t158.256,165.929q90.157,68.1,200.458,104.545T3147.774,2459.762ZM5184.809,1299.216q0,266.638,80.566,478.605t221.559,358.714q140.993,146.747,332.818,224.436t416.262,77.689a668.7,668.7,0,0,0,258.964-51.793,986.422,986.422,0,0,0,231.15-135.237,1179.781,1179.781,0,0,0,190.866-187.989q84.4-104.545,138.115-211.968l180.316,115.1q-78.649,128.524-186.071,246.5t-248.415,209.09q-140.992,91.117-318.43,144.828T6086.39,2620.9q-316.512,0-574.519-105.5t-442.158-285.82q-184.153-180.316-284.861-421.058t-100.708-509.3a1324.3,1324.3,0,0,1,46.039-348.163q46.038-169.766,133.318-318.431T5076.428,360.23Q5202.072,236.5,5360.329,147.3T5706.575,9.189q187.989-48.916,400.916-48.916,203.334,0,375.019,54.67t312.675,144.828Q6936.177,249.93,7046.477,367.9t188.949,246.5L7049.354,737.167q-159.216-308.84-356.8-451.749t-454.627-142.91q-220.6,0-412.425,80.567T5490.771,453.265q-142.91,149.624-224.436,363.51T5184.809,1299.216ZM8982.8-39.727,10179.8,2561.429H9744.353L9356.864,1713.56H8265.376L7864.46,2561.429H7649.615L8875.382-39.727ZM8340.188,1548.59h938.028l-462.3-1007.085ZM10689.9,17.821h805.668q199.5,0,374.06,47.956t304.044,140.992Q12303.154,299.8,12377,435.042t73.854,309.8q0,172.643-71.936,301.166t-189.907,212.926q-117.973,84.4-267.6,125.646a1142.635,1142.635,0,0,1-305,41.242q-67.138,0-140.032-2.877t-140.033-8.632q-67.137-5.755-124.686-13.428t-94-15.346V2561.429H10689.9Zm427.771,1223.848a1196.794,1196.794,0,0,0,155.379,41.242,868.422,868.422,0,0,0,168.806,16.305q138.116,0,241.7-41.242T11856.2,1144.8q69.057-71.935,102.625-168.807t33.57-206.212q0-128.523-44.12-232.109T11826.467,360.23q-77.691-73.853-182.235-114.136t-223.477-40.283h-303.084ZM14886.891,17.821v164.97H13546.029v909.254h897.744v164.97h-897.744V2396.459h1340.861v164.97H13118.259V17.821Z" transform="translate(2395.8 12876.945)"/>
    <path id="Subtraction_1" data-name="Subtraction 1" d="M10637.978,10637.98v-.015H0V0H10637.978V10637.98ZM5120.9,5155.016h.034c122.6,0,236.623,4.584,338.906,13.621,108.45,9.581,207.312,24.489,293.843,44.305,91.113,20.869,171.439,47.842,238.745,80.171,70.5,33.862,128.9,74.644,173.566,121.214a444.525,444.525,0,0,1,88.343,133.257c20.342,47.561,33.195,100.563,38.2,157.537,4.819,54.85,2.5,114.878-6.9,178.421-9.028,61.021-24.829,126.936-46.966,195.911-41.443,129.145-106.7,274.06-193.952,430.721-78.869,141.6-177.69,296.353-293.72,459.954-102.7,144.813-221.525,300.264-353.161,462.035-112.6,138.375-237.85,285.391-372.279,436.959-245.588,276.907-473.895,515.708-640.6,690.073l-22.006,23.021c-92.01,96.257-102.417,144.045-94.947,167.185,6.225,19.281,25.364,23.071,25.557,23.107.295.015,2.981.149,7.891.149,18.712,0,71.026-1.868,152.488-19.184,102.173-21.718,212.4-59.309,327.615-111.73,227.44-103.478,494.208-234.021,771.466-377.515,315.293-163.178,623.217-332.053,915.219-501.929,334.132-194.386,633.6-382.281,890.1-558.461,291.694-200.36,525.9-384.437,696.108-547.115,93.378-89.249,174.968-180.548,242.507-271.361,62.829-84.48,115.039-170.615,155.177-256.012,70.912-150.866,106.43-303.782,105.568-454.5a958.083,958.083,0,0,0-46.788-289.044,1057.481,1057.481,0,0,0-100.566-219.926c-71.988-119.621-144.8-188.313-145.526-188.992l.2-.173c10.646-7.875,107.927-79.122,243.258-154.567,83.578-46.594,165.126-85.659,242.38-116.111,96.567-38.064,186.65-62.7,267.75-73.217a826.958,826.958,0,0,1,106.02-6.746c70.6,0,144.12,8.741,218.5,25.979a1183.964,1183.964,0,0,1,178.907,57.158c100.693,41.045,164.62,82.721,165.255,83.138.044-.511,5.7-62.553-2.146-138.057-4.63-44.548-12.962-85.217-24.765-120.879-14.754-44.579-35-81.419-60.188-109.5s-59.487-52.06-101.962-71.289c-33.98-15.381-73.235-27.772-116.677-36.826-73.636-15.348-135.227-15.8-135.839-15.8.033-.79,2.865-83.033-28.314-174.2-18.426-53.875-44.931-100.629-78.781-138.966-42.315-47.919-96.293-82.744-160.433-103.508-61.98-20.066-143.483-30.241-242.246-30.241-80.689,0-217.958,7.179-413.678,41.377-116.113,20.29-198,40.525-201.424,41.377,1.014-1.157,108.577-124.468,200-305,53.574-105.783,91.054-210.046,111.4-309.89,25.436-124.811,24.019-243.035-4.21-351.388-20.091-77.194-58.368-153.852-113.766-227.843-55.389-73.976-128.158-145.645-216.29-213.021-89.1-68.115-194.405-132.216-312.989-190.523-121.1-59.543-256.976-113.494-403.869-160.353-177.088-56.493-394.547-105.738-646.336-146.362-230.024-37.11-493.96-67.88-784.473-91.454-494.539-40.129-1075.549-60.477-1726.889-60.477-354.885,0-924.82,6.434-1624.651,37.086-418.22,18.316-688.481,36.9-691.162,37.085-.054.035-5.92,3.842-4.656,8.949,2.057,8.307,22.073,19.567,105.754,26.032l28.444,2.194c283.653,21.872,811.589,62.583,1377.285,135.166,689.745,88.5,1244.432,199.484,1648.652,329.871,135.9,43.83,264.332,96.055,381.735,155.22,109.819,55.344,208.23,115.806,292.5,179.708,80.43,60.992,145.377,123.067,193.04,184.5,46.907,60.463,74.955,117.524,83.361,169.6,6.92,41.4-7.314,140.151-18.778,165.9-8.169,18.326-16.619,39.866-26.4,64.808-20.177,51.434-45.275,115.416-81.041,183.61-42.025,80.134-89.657,148.924-145.611,210.3-69.479,76.216-152.331,140.49-246.25,191.037-110.155,59.284-239,101.613-382.959,125.805-128.383,21.574-283.562,37.679-461.225,47.865-160.927,9.226-345.9,13.9-549.776,13.907-268.122,0-575.549-7.864-939.843-24.05-317.674-14.115-636.846-32.7-918.445-49.094-271.311-15.8-527.575-30.719-731.833-38.678-61.3-2.387-118.764-3.6-170.8-3.6-137.81,0-242.732,8.359-311.852,24.847-61.2,14.6-82.333,32.967-89.279,45.805-7.286,13.467-.817,23.587-.751,23.688.011.221,1.2,22.091,14.1,48.367,11.862,24.169,36.33,56.981,85.534,76.042,100.151,38.837,257.76,60.972,440.256,86.6,100.388,14.1,204.194,28.677,312.049,47.724,252.412,44.569,560.886,69.764,833.049,91.993,259.988,21.236,505.513,41.29,662.167,74.481,140.5,29.765,244.852,60.905,310.151,92.554,53.737,26.045,81.552,52.637,82.672,79.042.549,12.935-5.347,25.891-17.528,38.509-9.742,10.093-23.507,19.992-40.909,29.424a365.623,365.623,0,0,1-60.242,25.4c-.947.35-97.593,35.836-330.382,102.015-193.26,54.957-434.58,113.371-667.955,169.862-334.57,80.988-680.529,164.732-915.307,244.69-168.773,57.485-291.8,107.884-365.656,149.8-54.784,31.091-82.019,57.081-80.947,77.25,1.046,19.682,29.9,26.47,30.189,26.536.189.1,19.011,9.442,60.46,18.781,38.027,8.569,103.223,18.782,197.858,18.782,8.179,0,16.527-.076,24.812-.224,150-2.686,339.3-40.806,558.5-84.946,146.287-29.459,312.052-62.842,486.773-89.443,104.867-15.97,210.729-32.445,322.807-49.887C3620.334,5285.4,4458.169,5155.016,5120.9,5155.016Z" transform="translate(4463.7 1103.493)" fill="url(#linear-gradient)"/>
    <path id="Path_1" data-name="Path 1" d="M770.608,500.153Z" transform="translate(10822.526 4475.144)" fill="none" stroke="#707070" stroke-width="1"/>
    <path id="Path_4" data-name="Path 4" d="M5.487,562.071H141.97V329.512h300.8V562.071H578.355V-27.857H442.77V203.8H141.97V-27.857H5.487ZM1479.858,266.658q0,79.914,35.468,150.4t103.259,113.586q67.792,43.1,158.481,43.1t158.481-43.1q67.793-43.1,103.26-113.586t35.468-150.4q0-79.914-35.468-149.951T1935.548,3.57q-67.792-43.1-158.481-43.1T1618.585,3.57q-67.792,43.1-103.259,113.137T1479.858,266.658Zm453.445,0q0,45.793-18.407,85.751t-53.875,64.2q-35.468,24.244-83.955,24.244t-83.506-24.244q-35.018-24.244-53.425-64.2t-18.407-85.751a207.706,207.706,0,0,1,17.958-85.3q17.958-40.406,53.426-65.1t83.955-24.693q48.487,0,83.955,24.693t53.875,65.1A203.4,203.4,0,0,1,1933.3,266.658ZM3119.446,562.071h136.482V97.851H3474.12V-27.857H2901.253V97.851h218.193Zm1245.4,0h562.092V436.363H4501.332V329.512H4817.4V203.8H4501.332V97.851h425.609V-27.857H4364.85Zm1475.269,0h463.323V436.363H5976.6V-27.857H5840.119Z" transform="translate(6619.289 16627.588)"/>
  </g>
</svg>
