<svg xmlns="http://www.w3.org/2000/svg" width="396.049" height="432.573" viewBox="0 0 396.049 432.573">
  <g id="Group_180" data-name="Group 180" transform="translate(-2039.839 -94.896)">
    <g id="Group_98" data-name="Group 98" transform="translate(2137.863 94.896)">
      <g id="Ellipse_1" data-name="Ellipse 1" transform="matrix(0.819, -0.574, 0.574, 0.819, 4.621, 61.632)" fill="none" stroke="#f45959" stroke-width="12">
        <ellipse cx="53.726" cy="93.587" rx="53.726" ry="93.587" stroke="none"/>
        <ellipse cx="53.726" cy="93.587" rx="47.726" ry="87.587" fill="none"/>
      </g>
      <g id="Ellipse_2" data-name="Ellipse 2" transform="matrix(0.819, -0.574, 0.574, 0.819, 0, 70.875)" fill="none" stroke="#f45959" stroke-width="12">
        <ellipse cx="53.726" cy="93.587" rx="53.726" ry="93.587" stroke="none"/>
        <ellipse cx="53.726" cy="93.587" rx="47.726" ry="87.587" fill="none"/>
      </g>
      <g id="Ellipse_4" data-name="Ellipse 4" transform="matrix(0.819, -0.574, 0.574, 0.819, 4.621, 61.632)" fill="none" stroke="#f45959" stroke-width="12">
        <ellipse cx="53.726" cy="93.587" rx="53.726" ry="93.587" stroke="none"/>
        <ellipse cx="53.726" cy="93.587" rx="47.726" ry="87.587" fill="none"/>
      </g>
      <g id="Ellipse_3" data-name="Ellipse 3" transform="matrix(0.819, -0.574, 0.574, 0.819, 0, 70.875)" fill="none" stroke="#f45959" stroke-width="12">
        <ellipse cx="53.726" cy="93.587" rx="53.726" ry="93.587" stroke="none"/>
        <ellipse cx="53.726" cy="93.587" rx="47.726" ry="87.587" fill="none"/>
      </g>
    </g>
    <g id="Group_99" data-name="Group 99" transform="translate(2039.848 463.111)">
      <rect id="Rectangle_177" data-name="Rectangle 177" width="132.013" height="21.452" transform="translate(264.027 0)" fill="#f45959"/>
      <rect id="Rectangle_178" data-name="Rectangle 178" width="132.013" height="21.452" transform="translate(132.014 21.453)" fill="#fdf539"/>
      <rect id="Rectangle_179" data-name="Rectangle 179" width="132.013" height="21.452" transform="translate(0 42.906)"/>
    </g>
    <path id="Path_8" data-name="Path 8" d="M57.489,74.052q0,5.252,1.373,7.221t5.67,1.969q.955,0,4.058-.239a.527.527,0,0,1,.6.6v8.355q0,.477-.6.716-3.939.358-6.923.358-9.31,0-12.891-4.237T45.195,74.529V41.944H37.317a.528.528,0,0,1-.6-.6V33.469a.528.528,0,0,1,.6-.6h7.878V19.623q0-.716.477-.716l11.22-2.148a.306.306,0,0,1,.418.119.794.794,0,0,1,.179.477V32.872h11.1a.528.528,0,0,1,.6.6v7.878a.528.528,0,0,1-.6.6h-11.1ZM102.607,31.8q20.649,0,20.649,23.156v37a.527.527,0,0,1-.6.6h-11.1a.528.528,0,0,1-.6-.6V57.819q0-9.071-2.924-12.891t-8.892-3.82A12.285,12.285,0,0,0,88.94,46.121q-3.879,5.013-3.879,12.652V91.956a.528.528,0,0,1-.6.6h-11.1a.527.527,0,0,1-.6-.6V9.6a.528.528,0,0,1,.6-.6h11.1a.528.528,0,0,1,.6.6V40.631A20.973,20.973,0,0,1,102.607,31.8Zm50.012-.119q12.772,0,19.993,8.773t6.744,23.693a.527.527,0,0,1-.6.6H137.58q.716,19.814,15.159,19.814a14.7,14.7,0,0,0,9.071-2.686,12.485,12.485,0,0,0,4.655-7.7q.239-.6.716-.6h10.981q.836,0,.6.6a23.378,23.378,0,0,1-9.012,14.443q-6.983,5.133-17.128,5.133-13.249,0-20.709-8.415t-7.46-22.619q0-13.965,7.639-22.5T152.62,31.679Zm0,9.071a13.56,13.56,0,0,0-10.5,4.3q-3.939,4.3-4.416,11.817h29q-.239-7.4-4-11.757A12.648,12.648,0,0,0,152.62,40.75Zm77.7,44.522q-7.878,8.475-21.008,8.475t-20.948-8.534q-7.818-8.534-7.818-22.5t7.818-22.5q7.818-8.534,20.948-8.534t21.008,8.534q7.878,8.534,7.878,22.5T230.324,85.272Zm-32.586-6.923a14.533,14.533,0,0,0,23.216-.119q4.237-5.849,4.237-15.517T220.954,47.2a14.384,14.384,0,0,0-23.156,0q-4.237,5.849-4.237,15.517Q193.56,72.5,197.738,78.349Zm74.362-45.6q.6.239.6.716V42.66q0,.716-.6.477-8.475-.477-13.547,4.178t-5.073,13.13V91.956a.528.528,0,0,1-.6.6h-11.1a.527.527,0,0,1-.6-.6V33.469a.527.527,0,0,1,.6-.6h9.907q.716,0,.716.6l.6,8.594Q260.045,31.8,272.1,32.753Zm25.185-1.074q12.772,0,19.993,8.773t6.744,23.693a.528.528,0,0,1-.6.6h-41.18q.716,19.814,15.159,19.814a14.7,14.7,0,0,0,9.071-2.686,12.485,12.485,0,0,0,4.655-7.7q.239-.6.716-.6h10.981q.836,0,.6.6a23.378,23.378,0,0,1-9.012,14.443q-6.983,5.133-17.128,5.133-13.249,0-20.709-8.415t-7.46-22.619q0-13.965,7.639-22.5T297.285,31.679Zm0,9.071a13.56,13.56,0,0,0-10.5,4.3q-3.939,4.3-4.416,11.817h29q-.239-7.4-4-11.757A12.648,12.648,0,0,0,297.285,40.75Zm95.489-9.071q9.907,0,15.457,5.729t5.55,17.546v37q0,.716-.6.716h-11.1q-.6,0-.6-.716V57.7q0-9.071-2.566-12.533T390.267,41.7a11.862,11.862,0,0,0-9.489,4.715Q376.9,51.134,376.9,58.774V91.956q0,.716-.6.716H365.2q-.6,0-.6-.716V57.7q0-8.117-2.507-12.055T353.743,41.7a12.316,12.316,0,0,0-9.907,4.774Q339.9,51.254,339.9,58.654v33.3q0,.716-.6.716H328.2q-.6,0-.6-.716V33.469a.528.528,0,0,1,.6-.6h9.907q.716,0,.716.6l.6,8q6.445-9.788,17.307-9.788,11.817,0,17.188,11.459a27.758,27.758,0,0,1,7.938-8.176A18.992,18.992,0,0,1,392.774,31.679Zm27.572,60.874a.528.528,0,0,1-.6-.6V79.184a.528.528,0,0,1,.6-.6h11.817a.528.528,0,0,1,.6.6V91.956a.528.528,0,0,1-.6.6Z" transform="translate(2003.119 316.18)" fill="#f45959"/>
  </g>
</svg>
