<svg xmlns="http://www.w3.org/2000/svg" width="1000" height="1000" viewBox="0 0 1000 1000">
  <g id="Group_9" data-name="Group 9" transform="translate(-1000)">
    <rect id="Rectangle_2" data-name="Rectangle 2" width="1000" height="1000" transform="translate(1000)" fill="#dbfe03"/>
    <g id="Group_2" data-name="Group 2" transform="translate(547 -105)">
      <path id="Subtraction_3" data-name="Subtraction 3" d="M-2056.29,1574.441h0l-148.578-97.594.008-.008a78.958,78.958,0,0,0,8.933-10.309,87.086,87.086,0,0,0,7.308-11.705,70.263,70.263,0,0,0,5.761-15.014,86.659,86.659,0,0,0,2.321-17.109,143.879,143.879,0,0,0-.258-16.316,158.28,158.28,0,0,0-2.064-17.022l-.006.021a166.459,166.459,0,0,1-11.292,22.873A137.193,137.193,0,0,1-2207.8,1431.6a79.884,79.884,0,0,1-18.54,16.368,74.351,74.351,0,0,1-24.118,9.113,117.09,117.09,0,0,1-23.312,2.213,125.761,125.761,0,0,1-20.469-1.562,146.206,146.206,0,0,0,20.107-18.83,142.152,142.152,0,0,0,16.009-21.583,104.754,104.754,0,0,0,11.869-27.958,126.2,126.2,0,0,0,3.349-32.184,217.891,217.891,0,0,0-2.734-30.881,256.879,256.879,0,0,0-7.156-32.354l12.487-58.538-34.276,53.489a183.092,183.092,0,0,1,.634,27.934,142.239,142.239,0,0,1-3.384,25.076c-2.214,9.4-5.431,17.385-9.562,23.734a63.56,63.56,0,0,1-17.03,17.148,99.723,99.723,0,0,1-19.813,10.587,128.488,128.488,0,0,1-16.282,5.323c-4.318,1.1-6.956,1.532-6.982,1.536l.008-.011a76.9,76.9,0,0,0,7.779-13.269,95.479,95.479,0,0,0,5.652-15.217,90.661,90.661,0,0,0,3.2-19.707,132.652,132.652,0,0,0-1.114-22.68c-.851-6.776-2.141-14.1-3.835-21.759-2.844-12.867-5.884-22.391-6.012-22.791l62.858-148.055-62.859,68.637,2.866-94.21,64.163-73.756,0-.005a90.5,90.5,0,0,1-3.562-13.171,87.058,87.058,0,0,1-1.586-13.167,59.762,59.762,0,0,1,1.094-14.615c2.33-11.076,11.2-20.406,19.02-28.638l0,0,.009-.009.033-.035c2.128-2.239,4.138-4.353,5.937-6.423,11.352-13.049,28.843-15.789,41.516-15.789a86.14,86.14,0,0,1,16.151,1.484l50.5-55.043,89.584,48.324L-1965.785,892l49.115,55.044a93.9,93.9,0,0,1,16.779-1.45c13.46,0,31.969,2.79,43.706,16.084.651.738,1.3,1.464,1.958,2.2l.006.007,0,0a152.331,152.331,0,0,1,12.06,14.791c4.285,6.244,6.961,12.1,8.181,17.906a75.029,75.029,0,0,1,1.485,15,106.643,106.643,0,0,1-.833,13.506,105.352,105.352,0,0,1-2.5,13.507l64.065,72.565v94.21l-62.093-68.637,65.411,148.051a201.963,201.963,0,0,0-6.568,20.358,186.225,186.225,0,0,0-4.265,20.084,115.932,115.932,0,0,0-1.412,21.919,97.411,97.411,0,0,0,3.155,20.468,122.554,122.554,0,0,0,5.785,16.892,109.672,109.672,0,0,0,8.051,15.716h-.014a113.11,113.11,0,0,1-22.847-6.258A94.146,94.146,0,0,1-1806.1,1383.8a62.023,62.023,0,0,1-16.917-16.961c-4.134-6.347-7.4-14.4-9.711-23.921a150.128,150.128,0,0,1-3.687-25.489,198.563,198.563,0,0,1,.2-28.535l-34.558-53.489,12.387,58.538a307.5,307.5,0,0,0-6.027,34.317,258.735,258.735,0,0,0-1.986,32.231,140.426,140.426,0,0,0,3.631,32.8,102.206,102.206,0,0,0,11.392,27.345,123.89,123.89,0,0,0,15.091,20.234,117.72,117.72,0,0,0,18.813,16.867.094.094,0,0,1-.021,0l-.022,0c-.966.072-4.522.306-9.749.306h-.012c-14.477,0-41.671-1.8-61.141-13.827a75.957,75.957,0,0,1-17.876-15.782,114.856,114.856,0,0,1-12.354-18.055,127.581,127.581,0,0,1-9.481-21.018l0,.02a131.956,131.956,0,0,0-2.021,15.42,127.185,127.185,0,0,0-.253,15.229,86.409,86.409,0,0,0,2.279,16.614,82.435,82.435,0,0,0,5.655,15.508,113.693,113.693,0,0,0,7.174,12.794,108.937,108.937,0,0,0,8.778,11.9l-149.766,97.594Zm.19-224.8h0l-57.654,28.023-5.679,28.921,63.333,38.449,64.621-38.449-5.469-28.921-59.152-28.023Zm-61.339-315.275c-.182.224-18.259,22.658-37.237,50.3-11.324,16.5-20.932,31.817-28.559,45.537-9.539,17.161-16,31.87-19.2,43.718s-3.674,22.8-1.408,32.57a49.4,49.4,0,0,0,10.583,21.012,55.916,55.916,0,0,0,13.215,11.273,43.354,43.354,0,0,0,6.485,3.354l25.368,82.872a62.04,62.04,0,0,0,9.636,9.479,53.312,53.312,0,0,0,10.773,6.724,36.993,36.993,0,0,0,13.613,3.493c2.729.137,5.219.2,7.611.2,9.2,0,16.282-1.033,21.057-3.07a38.579,38.579,0,0,0,12.01-8.163,31.226,31.226,0,0,0,3.963-4.73l-.846-17.916-27.51-42.25,42.2,20.37,42.579-20.37-28.738,42.25v17.916a64.164,64.164,0,0,0,10.3,7.937,57.643,57.643,0,0,0,11.037,5.457,39.388,39.388,0,0,0,13.33,2.48c.912,0,1.832-.039,2.733-.114,1.223-.1,2.469-.191,3.853-.286h.016c3.583-.249,7.643-.532,11.446-1.174a30.163,30.163,0,0,0,10.322-3.363,41.04,41.04,0,0,0,7.27-5.514,49.5,49.5,0,0,0,5.2-5.767,44.639,44.639,0,0,0,4.173-6.386l23.9-80.076a43.323,43.323,0,0,0,6.494-3.308,55.574,55.574,0,0,0,13.226-11.173,48.825,48.825,0,0,0,10.578-20.912c2.258-9.734,1.769-20.677-1.453-32.525s-9.714-26.57-19.3-43.763c-7.663-13.75-17.311-29.1-28.677-45.637-19-27.632-36.634-49.524-37.375-50.442l-60.942,40.879-61.737-40.882Zm200.9-86.974h0c-.038.016-3.894,1.579-9.061,4.363a89.735,89.735,0,0,0-17.384,11.964,81.508,81.508,0,0,0-13.135,15.905,89.11,89.11,0,0,0-4.812,8.3l78.367,90.216,19.742-9.575-53.717-121.179Zm-279.35,0h0l-53.716,121.179,19.742,9.575,78.366-90.216a87.164,87.164,0,0,0-4.812-8.3,83.717,83.717,0,0,0-13.135-15.905,86.911,86.911,0,0,0-17.385-11.964C-2192.018,948.955-2195.851,947.4-2195.89,947.388Z" transform="translate(2991.61 -613.851)"/>
      <path id="Path_3" data-name="Path 3" d="M3327.538-258.953,3316.6-321.929l55.292-38.306,17.722,28.519-48.113,26.343Z" transform="translate(-2347 892)"/>
      <path id="Path_4" data-name="Path 4" d="M3378.686-258.953l10.934-62.976-55.292-38.306L3316.6-331.716l48.113,26.343Z" transform="translate(-2487 892)"/>
    </g>
  </g>
</svg>
