<svg xmlns="http://www.w3.org/2000/svg" width="100" height="100" viewBox="0 0 100 100"><g transform="translate(-395.5 -220.5)"><line y2="100" transform="translate(445.5 220.5)" fill="none" stroke="#000" stroke-width="2"/><line y2="100" transform="matrix(0.966, 0.259, -0.259, 0.966, 458.441, 222.204)" fill="none" stroke="#000" stroke-width="2"/><line y2="100" transform="translate(470.5 227.199) rotate(30)" fill="none" stroke="#000" stroke-width="2"/><line y2="100" transform="translate(480.855 235.145) rotate(45)" fill="none" stroke="#000" stroke-width="2"/><line y2="100" transform="translate(488.801 245.5) rotate(60)" fill="none" stroke="#000" stroke-width="2"/><line y2="100" transform="matrix(0.259, 0.966, -0.966, 0.259, 493.796, 257.559)" fill="none" stroke="#000" stroke-width="2"/><line y2="100" transform="translate(495.5 270.5) rotate(90)" fill="none" stroke="#000" stroke-width="2"/><line y2="100" transform="matrix(-0.259, 0.966, -0.966, -0.259, 493.796, 283.441)" fill="none" stroke="#000" stroke-width="2"/><line y2="100" transform="translate(488.801 295.5) rotate(120)" fill="none" stroke="#000" stroke-width="2"/><line y2="100" transform="translate(480.855 305.855) rotate(135)" fill="none" stroke="#000" stroke-width="2"/><line y2="100" transform="translate(470.5 313.801) rotate(150)" fill="none" stroke="#000" stroke-width="2"/><line y2="100" transform="matrix(-0.966, 0.259, -0.259, -0.966, 458.441, 318.796)" fill="none" stroke="#000" stroke-width="2"/></g></svg>